<?xml version="1.0" standalone="no"?>
<!DOCTYPE svg PUBLIC "-//W3C//DTD SVG 20010904//EN"
 "http://www.w3.org/TR/2001/REC-SVG-20010904/DTD/svg10.dtd">
<svg version="1.0" xmlns="http://www.w3.org/2000/svg"
 width="874.000000pt" height="874.000000pt" viewBox="0 0 874.000000 874.000000"
 preserveAspectRatio="xMidYMid meet">
<metadata>
Created by potrace 1.14, written by Peter Selinger 2001-2017
</metadata>
<g transform="translate(0.000000,874.000000) scale(0.100000,-0.100000)"
fill="#000000" stroke="none">
<path d="M1640 4397 c-882 -1376 -1608 -2508 -1613 -2514 -5 -7 -7 -13 -4 -13
3 0 391 390 862 868 471 477 861 867 866 867 5 0 232 -202 505 -448 272 -247
497 -447 498 -445 70 92 650 808 654 808 4 0 117 -102 252 -226 135 -124 275
-252 312 -285 l66 -60 298 406 297 405 86 -79 c47 -44 507 -471 1021 -949 514
-478 936 -868 938 -867 2 2 -376 557 -838 1234 -463 677 -840 1235 -838 1240
2 5 52 59 111 121 l109 111 91 -86 c51 -46 198 -188 327 -314 l235 -230 222
221 222 221 123 -116 c68 -63 607 -577 1198 -1140 591 -563 1076 -1023 1078
-1022 7 6 -3024 4544 -3033 4541 -5 -1 -251 -388 -545 -859 -295 -471 -538
-858 -541 -861 -2 -3 -233 329 -511 737 -279 408 -583 853 -676 989 l-169 248
-1603 -2503z m2175 127 c297 -274 540 -501 540 -504 0 -14 -379 -590 -386
-588 -4 2 -141 126 -304 276 -163 149 -300 272 -304 272 -4 0 -148 -182 -320
-405 -172 -223 -316 -405 -321 -405 -11 0 -688 692 -689 705 0 6 265 279 591
608 l591 598 31 -29 c17 -16 274 -254 571 -528z m2142 186 l181 -175 -141
-148 -140 -148 -248 247 -247 247 136 143 136 143 71 -67 c38 -37 152 -146
252 -242z"/>
</g>
</svg>
